<svg xmlns="http://www.w3.org/2000/svg" style="cursor: move;" viewBox="709.73 141.77 891.12 703.73"><g transform="translate(-1140.2812686763036,-645.9548135893554) scale(2.342420362437661)"><path class="link" marker-end="" d="M800,426.5, 980,346.5" style="stroke-width: 0.71; stroke-opacity: 1; stroke: rgb(255, 22, 22); fill: none;"/><path class="link" marker-end="" d="M800,426.5, 980,386.5" style="stroke-width: 0.71; stroke-opacity: 1; stroke: rgb(255, 65, 65); fill: none;"/><path class="link" marker-end="" d="M800,426.5, 980,426.5" style="stroke-width: 0.71; stroke-opacity: 1; stroke: rgb(73, 73, 255); fill: none;"/><path class="link" marker-end="" d="M800,426.5, 980,466.5" style="stroke-width: 0.71; stroke-opacity: 1; stroke: rgb(52, 52, 255); fill: none;"/><path class="link" marker-end="" d="M800,426.5, 980,506.5" style="stroke-width: 0.71; stroke-opacity: 1; stroke: rgb(255, 100, 100); fill: none;"/><path class="link" marker-end="" d="M800,426.5, 980,546.5" style="stroke-width: 0.71; stroke-opacity: 1; stroke: rgb(255, 81, 81); fill: none;"/><path class="link" marker-end="" d="M800,426.5, 980,586.5" style="stroke-width: 0.71; stroke-opacity: 1; stroke: rgb(255, 67, 67); fill: none;"/><path class="link" marker-end="" d="M800,426.5, 980,626.5" style="stroke-width: 0.71; stroke-opacity: 1; stroke: rgb(231, 231, 255); fill: none;"/><path class="link" marker-end="" d="M800,466.5, 980,346.5" style="stroke-width: 0.71; stroke-opacity: 1; stroke: rgb(255, 116, 116); fill: none;"/><path class="link" marker-end="" d="M800,466.5, 980,386.5" style="stroke-width: 0.71; stroke-opacity: 1; stroke: rgb(6, 6, 255); fill: none;"/><path class="link" marker-end="" d="M800,466.5, 980,426.5" style="stroke-width: 0.71; stroke-opacity: 1; stroke: rgb(255, 123, 123); fill: none;"/><path class="link" marker-end="" d="M800,466.5, 980,466.5" style="stroke-width: 0.71; stroke-opacity: 1; stroke: rgb(203, 203, 255); fill: none;"/><path class="link" marker-end="" d="M800,466.5, 980,506.5" style="stroke-width: 0.71; stroke-opacity: 1; stroke: rgb(68, 68, 255); fill: none;"/><path class="link" marker-end="" d="M800,466.5, 980,546.5" style="stroke-width: 0.71; stroke-opacity: 1; stroke: rgb(179, 179, 255); fill: none;"/><path class="link" marker-end="" d="M800,466.5, 980,586.5" style="stroke-width: 0.71; stroke-opacity: 1; stroke: rgb(255, 16, 16); fill: none;"/><path class="link" marker-end="" d="M800,466.5, 980,626.5" style="stroke-width: 0.71; stroke-opacity: 1; stroke: rgb(98, 98, 255); fill: none;"/><path class="link" marker-end="" d="M800,506.5, 980,346.5" style="stroke-width: 0.71; stroke-opacity: 1; stroke: rgb(138, 138, 255); fill: none;"/><path class="link" marker-end="" d="M800,506.5, 980,386.5" style="stroke-width: 0.71; stroke-opacity: 1; stroke: rgb(255, 232, 232); fill: none;"/><path class="link" marker-end="" d="M800,506.5, 980,426.5" style="stroke-width: 0.71; stroke-opacity: 1; stroke: rgb(255, 19, 19); fill: none;"/><path class="link" marker-end="" d="M800,506.5, 980,466.5" style="stroke-width: 0.71; stroke-opacity: 1; stroke: rgb(147, 147, 255); fill: none;"/><path class="link" marker-end="" d="M800,506.5, 980,506.5" style="stroke-width: 0.71; stroke-opacity: 1; stroke: rgb(199, 199, 255); fill: none;"/><path class="link" marker-end="" d="M800,506.5, 980,546.5" style="stroke-width: 0.71; stroke-opacity: 1; stroke: rgb(165, 165, 255); fill: none;"/><path class="link" marker-end="" d="M800,506.5, 980,586.5" style="stroke-width: 0.71; stroke-opacity: 1; stroke: rgb(130, 130, 255); fill: none;"/><path class="link" marker-end="" d="M800,506.5, 980,626.5" style="stroke-width: 0.71; stroke-opacity: 1; stroke: rgb(255, 162, 162); fill: none;"/><path class="link" marker-end="" d="M800,546.5, 980,346.5" style="stroke-width: 0.71; stroke-opacity: 1; stroke: rgb(255, 223, 223); fill: none;"/><path class="link" marker-end="" d="M800,546.5, 980,386.5" style="stroke-width: 0.71; stroke-opacity: 1; stroke: rgb(9, 9, 255); fill: none;"/><path class="link" marker-end="" d="M800,546.5, 980,426.5" style="stroke-width: 0.71; stroke-opacity: 1; stroke: rgb(255, 74, 74); fill: none;"/><path class="link" marker-end="" d="M800,546.5, 980,466.5" style="stroke-width: 0.71; stroke-opacity: 1; stroke: rgb(49, 49, 255); fill: none;"/><path class="link" marker-end="" d="M800,546.5, 980,506.5" style="stroke-width: 0.71; stroke-opacity: 1; stroke: rgb(136, 136, 255); fill: none;"/><path class="link" marker-end="" d="M800,546.5, 980,546.5" style="stroke-width: 0.71; stroke-opacity: 1; stroke: rgb(164, 164, 255); fill: none;"/><path class="link" marker-end="" d="M800,546.5, 980,586.5" style="stroke-width: 0.71; stroke-opacity: 1; stroke: rgb(49, 49, 255); fill: none;"/><path class="link" marker-end="" d="M800,546.5, 980,626.5" style="stroke-width: 0.71; stroke-opacity: 1; stroke: rgb(60, 60, 255); fill: none;"/><path class="link" marker-end="" d="M980,346.5, 1160,486.5" style="stroke-width: 0.71; stroke-opacity: 1; stroke: rgb(255, 216, 216); fill: none;"/><path class="link" marker-end="" d="M980,386.5, 1160,486.5" style="stroke-width: 0.71; stroke-opacity: 1; stroke: rgb(255, 139, 139); fill: none;"/><path class="link" marker-end="" d="M980,426.5, 1160,486.5" style="stroke-width: 0.71; stroke-opacity: 1; stroke: rgb(255, 143, 143); fill: none;"/><path class="link" marker-end="" d="M980,466.5, 1160,486.5" style="stroke-width: 0.71; stroke-opacity: 1; stroke: rgb(2, 2, 255); fill: none;"/><path class="link" marker-end="" d="M980,506.5, 1160,486.5" style="stroke-width: 0.71; stroke-opacity: 1; stroke: rgb(127, 127, 255); fill: none;"/><path class="link" marker-end="" d="M980,546.5, 1160,486.5" style="stroke-width: 0.71; stroke-opacity: 1; stroke: rgb(255, 21, 21); fill: none;"/><path class="link" marker-end="" d="M980,586.5, 1160,486.5" style="stroke-width: 0.71; stroke-opacity: 1; stroke: rgb(255, 79, 79); fill: none;"/><path class="link" marker-end="" d="M980,626.5, 1160,486.5" style="stroke-width: 0.71; stroke-opacity: 1; stroke: rgb(222, 222, 255); fill: none;"/><circle r="10" class="node" id="0_0" cx="800" cy="426.5" style="fill: rgb(255, 255, 255); stroke: rgb(51, 51, 51);"/><circle r="10" class="node" id="0_1" cx="800" cy="466.5" style="fill: rgb(255, 255, 255); stroke: rgb(51, 51, 51);"/><circle r="10" class="node" id="0_2" cx="800" cy="506.5" style="fill: rgb(255, 255, 255); stroke: rgb(51, 51, 51);"/><circle r="10" class="node" id="0_3" cx="800" cy="546.5" style="fill: rgb(255, 255, 255); stroke: rgb(51, 51, 51);"/><circle r="10" class="node" id="1_0" cx="980" cy="346.5" style="fill: rgb(255, 255, 255); stroke: rgb(51, 51, 51);"/><circle r="10" class="node" id="1_1" cx="980" cy="386.5" style="fill: rgb(255, 255, 255); stroke: rgb(51, 51, 51);"/><circle r="10" class="node" id="1_2" cx="980" cy="426.5" style="fill: rgb(255, 255, 255); stroke: rgb(51, 51, 51);"/><circle r="10" class="node" id="1_3" cx="980" cy="466.5" style="fill: rgb(255, 255, 255); stroke: rgb(51, 51, 51);"/><circle r="10" class="node" id="1_4" cx="980" cy="506.5" style="fill: rgb(255, 255, 255); stroke: rgb(51, 51, 51);"/><circle r="10" class="node" id="1_5" cx="980" cy="546.5" style="fill: rgb(255, 255, 255); stroke: rgb(51, 51, 51);"/><circle r="10" class="node" id="1_6" cx="980" cy="586.5" style="fill: rgb(255, 255, 255); stroke: rgb(51, 51, 51);"/><circle r="10" class="node" id="1_7" cx="980" cy="626.5" style="fill: rgb(255, 255, 255); stroke: rgb(51, 51, 51);"/><circle r="10" class="node" id="2_0" cx="1160" cy="486.5" style="fill: rgb(255, 255, 255); stroke: rgb(51, 51, 51);"/><text class="text" dy=".35em" x="765" y="666.5" style="font-size: 12px;"/><text class="text" dy=".35em" x="945" y="666.5" style="font-size: 12px;"/><text class="text" dy=".35em" x="1125" y="666.5" style="font-size: 12px;"/></g><defs><marker id="arrow" viewBox="0 -5 10 10" markerWidth="7" markerHeight="7" orient="auto" refX="40"><path d="M0,-5L10,0L0,5" style="stroke: rgb(80, 80, 80); fill: none;"/></marker></defs></svg>