<?xml version="1.0" encoding="UTF-8"?>
<svg version="1.1" xmlns="http://www.w3.org/2000/svg" width="2048" height="2048">
<path d="M0 0 C1.28906313 -0.00282738 2.57812626 -0.00565475 3.90625191 -0.00856781 C10.03209789 -0.02195286 16.15792549 -0.0318771 22.28378481 -0.0357697 C29.26319237 -0.04023407 36.24240251 -0.05773279 43.2217502 -0.0867703 C48.67889775 -0.10865645 54.13599087 -0.11848807 59.59318167 -0.11981082 C62.82378951 -0.12083997 66.0541726 -0.12787434 69.28474236 -0.14463043 C114.65546813 -0.3631464 160.69763863 8.25395981 201.171875 29.34375 C203.79991257 30.70729705 206.46108512 31.91134717 209.18359375 33.07421875 C214.30001225 35.32050433 219.01928226 38.11061982 223.78515625 41.015625 C224.666875 41.54969971 225.54859375 42.08377441 226.45703125 42.6340332 C232.42280034 46.27259996 238.24139208 50.02722618 243.84765625 54.203125 C244.80671875 54.89792969 245.76578125 55.59273437 246.75390625 56.30859375 C252.60436123 60.60040479 258.08833897 65.09820838 263.4140625 70.0234375 C265.83266745 72.18970004 268.33493535 74.16456952 270.91015625 76.140625 C275.3098436 79.60537879 278.93221371 83.4383519 282.59765625 87.66015625 C286.16370932 91.69053915 290.00312795 95.44039517 293.84765625 99.203125 C294.40453125 98.64625 294.96140625 98.089375 295.53515625 97.515625 C297.04492314 96.00585811 298.55656033 94.49795856 300.0703125 92.9921875 C302.32284531 90.73015033 304.55490671 88.45171014 306.78125 86.1640625 C314.76369771 78.01032143 322.73874095 70.29840002 331.87890625 63.45703125 C334.38395243 61.55517382 336.67590621 59.59456203 338.97265625 57.453125 C342.8838344 53.94309332 347.2721233 51.51745929 351.83984375 48.953125 C354.63173562 47.32875155 357.22837948 45.58967804 359.84765625 43.703125 C370.77859408 35.94457292 382.39680016 30.53935394 394.62744141 25.18408203 C397.30355445 24.0016956 399.95043002 22.76114294 402.59765625 21.515625 C411.6802322 17.39628346 421.10695411 13.38677619 430.98046875 11.7578125 C435.05589438 10.96937866 439.02997932 9.85026214 443.03515625 8.765625 C471.92886604 1.08427637 500.29073391 -0.24609516 530.00412798 -0.10105681 C534.58707808 -0.08198921 539.17003759 -0.08051637 543.75302124 -0.07698059 C552.38662432 -0.06774674 561.0201101 -0.04325353 569.65366209 -0.01293212 C581.35191393 0.02723929 593.05019906 0.04313694 604.74850273 0.06057453 C623.11497468 0.08857651 641.48119939 0.14840261 659.84765625 0.203125 C659.84765625 49.043125 659.84765625 97.883125 659.84765625 148.203125 C643.46818359 148.27660156 643.46818359 148.27660156 626.7578125 148.3515625 C619.81704962 148.38697105 612.87629481 148.42286541 605.93554688 148.4609375 C594.93239221 148.52120358 583.92925259 148.57955407 572.92602539 148.625 C564.91004861 148.65811704 556.89413855 148.6980543 548.87823576 148.74591506 C544.64057373 148.77098586 540.40295483 148.79282242 536.16523933 148.80646896 C532.16218493 148.81946819 528.15928001 148.84170686 524.15630913 148.87050819 C522.70087698 148.87944666 521.24542086 148.88524124 519.78996277 148.88733864 C482.03217518 148.951393 447.12597805 159.74653022 417.84765625 184.203125 C416.65375918 185.65516198 415.461148 187.10842531 414.2890625 188.578125 C412.65032076 190.42559536 410.87025784 191.93611847 408.97265625 193.515625 C404.56325317 197.30804071 401.20566531 201.46888272 397.84765625 206.203125 C397.28691406 206.99203125 397.28691406 206.99203125 396.71484375 207.796875 C393.62493522 212.18255163 390.69109642 216.65406005 387.84765625 221.203125 C387.44724121 221.84217773 387.04682617 222.48123047 386.63427734 223.13964844 C381.29390708 231.86880265 377.76337088 240.73587923 374.97265625 250.578125 C374.69848877 251.54476074 374.42432129 252.51139648 374.1418457 253.50732422 C369.78241462 269.96786468 368.40363192 286.13790337 368.47013283 303.10386658 C368.46699597 305.1531337 368.46254672 307.20239915 368.45691973 309.25166094 C368.44530579 314.85312426 368.45219128 320.45443112 368.46225359 326.05589171 C368.46989437 332.16123459 368.46007182 338.26655432 368.45252359 344.37189388 C368.44170688 355.06255131 368.44190424 365.75315756 368.44966507 376.44381332 C368.45793629 387.90758968 368.45964588 399.37133937 368.45345306 410.83511734 C368.45287179 411.9236456 368.45287179 411.9236456 368.45227877 413.03416432 C368.45067885 415.99006009 368.44903271 418.94595583 368.44732794 421.90185154 C368.43148226 449.3961715 368.43037395 476.8904736 368.43877029 504.38479614 C368.43914287 505.60542324 368.43914287 505.60542324 368.43952298 506.85070947 C368.43989616 508.0733023 368.43989616 508.0733023 368.44027689 509.32059398 C368.44785165 534.16936909 368.44979819 559.01813682 368.44620895 583.86691284 C368.44597652 585.53202591 368.44574505 587.19713898 368.44551454 588.86225205 C368.44458311 595.55394469 368.44362711 602.24563734 368.44263525 608.93732997 C368.43988447 627.64243927 368.43817249 646.3475486 368.43727684 665.05265808 C368.43721543 666.33025143 368.43721543 666.33025143 368.43715279 667.63365475 C368.43592527 694.76633512 368.43930397 721.89901293 368.44582558 749.0316925 C368.44603632 749.91149039 368.44624707 750.79128827 368.4464642 751.69774669 C368.44989889 765.98436342 368.45355735 780.27098009 368.45723473 794.55759676 C368.47180331 851.21711589 368.47112711 907.87661377 368.45654297 964.53613281 C368.45287929 978.81560768 368.44924609 993.09508256 368.44582558 1007.3745575 C368.44561423 1008.25384167 368.44540289 1009.13312584 368.44518514 1010.03905499 C368.43871491 1037.14390097 368.43597408 1064.24874519 368.43727684 1091.35359192 C368.43731759 1092.2046924 368.43735835 1093.05579288 368.43740033 1093.93268428 C368.43833784 1112.61714348 368.4402389 1131.30160251 368.44300835 1149.98606153 C368.44399574 1156.6717091 368.44493499 1163.35735668 368.44586048 1170.04300426 C368.44609265 1171.70616183 368.44632884 1173.36931941 368.44656907 1175.03247698 C368.45014732 1199.87350128 368.44710543 1224.71451727 368.43952298 1249.55554053 C368.43927459 1250.36929193 368.43902621 1251.18304333 368.43877029 1252.02145386 C368.43852225 1252.83369873 368.4382742 1253.6459436 368.43801864 1254.48280195 C368.42973767 1281.89912302 368.43280058 1309.31542269 368.44861253 1336.73174071 C368.45026952 1339.67820467 368.45187964 1342.62466865 368.45345306 1345.57113266 C368.45384368 1346.2942265 368.4542343 1347.01732034 368.45463676 1347.76232612 C368.46054456 1359.19319833 368.45644423 1370.62404385 368.44814605 1382.05491364 C368.44019312 1393.30575253 368.44327852 1404.55654693 368.45718831 1415.80738379 C368.46432061 1421.82098719 368.46677302 1427.83448985 368.45597036 1433.84809005 C368.44622913 1439.32675651 368.45046873 1444.80523352 368.46551234 1450.28388636 C368.46851544 1452.24577017 368.46658441 1454.20766992 368.45889453 1456.16954096 C368.39451476 1473.86013025 370.5525261 1490.30334179 375.84765625 1507.203125 C376.27498047 1508.79833984 376.27498047 1508.79833984 376.7109375 1510.42578125 C382.66196145 1532.00152005 397.55335841 1553.27396408 414.234375 1567.87890625 C416.00101714 1569.45013506 417.71611837 1571.08096866 419.37890625 1572.76171875 C435.74409518 1588.94564768 461.32225346 1600.42289439 483.72265625 1604.328125 C484.63917969 1604.49699219 485.55570313 1604.66585938 486.5 1604.83984375 C498.07183179 1606.90682355 509.49193481 1607.36089663 521.2331543 1607.40844727 C522.75200148 1607.41804744 524.27084611 1607.4280587 525.78968811 1607.43844604 C529.87979889 1607.46526975 533.96992095 1607.48639997 538.0600698 1607.50644803 C542.34685507 1607.52844812 546.6336065 1607.55576762 550.92036438 1607.58250427 C559.02315277 1607.6322429 567.12596013 1607.67725087 575.22878534 1607.72052664 C586.18859521 1607.77933743 597.14836045 1607.84552207 608.10813046 1607.91127682 C625.35460889 1608.01455661 642.60112616 1608.10804149 659.84765625 1608.203125 C659.84765625 1657.043125 659.84765625 1705.883125 659.84765625 1756.203125 C619.26697891 1756.3240341 619.26697891 1756.3240341 602.109375 1756.34960938 C590.31685418 1756.36732984 578.5243982 1756.38802771 566.73193359 1756.42944336 C558.13909772 1756.45960705 549.54631503 1756.47876105 540.95342767 1756.48539048 C536.41527163 1756.48925773 531.87726759 1756.49816356 527.33916092 1756.52031517 C502.10827224 1756.63863272 477.50845801 1755.88460189 452.78515625 1750.203125 C451.07102539 1749.831875 451.07102539 1749.831875 449.32226562 1749.453125 C443.75297811 1748.2190763 438.39336977 1746.78133106 433.01733398 1744.88232422 C430.68338509 1744.15170131 428.38756361 1743.70154418 425.98046875 1743.2734375 C420.28628103 1742.20316756 415.08742254 1740.23048906 409.72265625 1738.078125 C408.72000732 1737.68069092 407.7173584 1737.28325684 406.68432617 1736.8737793 C399.38332498 1733.93270073 392.31606887 1730.67826716 385.34375 1727.03125 C382.16621738 1725.36970221 378.9568757 1723.81261039 375.72265625 1722.265625 C369.34005141 1719.07865271 363.45556078 1715.22339813 357.51416016 1711.29492188 C355.02424122 1709.66367115 352.49660767 1708.09353101 349.97265625 1706.515625 C340.86424195 1700.69893082 332.78895857 1693.85453981 324.65283203 1686.77075195 C323.43255708 1685.71105686 322.20679684 1684.65765049 320.97607422 1683.61010742 C315.3715902 1678.7997441 310.16706986 1673.6374667 304.97265625 1668.390625 C303.69261719 1667.10381836 303.69261719 1667.10381836 302.38671875 1665.79101562 C300.82061708 1664.21624092 299.2555502 1662.64043589 297.69189453 1661.06323242 C296.41334674 1659.77368309 295.13171659 1658.48718534 293.84765625 1657.203125 C291.28092103 1659.74054415 288.72006068 1662.28381615 286.16015625 1664.828125 C285.43892578 1665.54097656 284.71769531 1666.25382812 283.97460938 1666.98828125 C280.91277695 1670.0361327 277.9041248 1673.04053999 275.21484375 1676.42578125 C272.6151909 1679.475869 269.88683397 1681.64572651 266.66015625 1684.015625 C262.5033213 1687.11140246 258.57366093 1690.27870071 254.78515625 1693.828125 C249.53778172 1698.6250095 243.83814978 1702.40861915 237.84765625 1706.203125 C236.02049976 1707.37187451 234.19370863 1708.54119531 232.3671875 1709.7109375 C211.37351184 1723.13009222 211.37351184 1723.13009222 206.28515625 1725.015625 C202.54969581 1726.46496177 199.02408956 1728.09954807 195.47265625 1729.953125 C155.81752141 1749.93166374 110.30627579 1756.72656813 66.34375 1756.6015625 C63.76245543 1756.60359392 61.18116143 1756.60651409 58.59986877 1756.61026001 C53.2205701 1756.61464517 47.84143535 1756.60868673 42.4621582 1756.59423828 C37.0375962 1756.5798303 31.61328225 1756.57970513 26.1887207 1756.59423828 C-23.10325563 1756.72280498 -71.55490645 1754.87386473 -119.9765625 1745.02734375 C-123.43942233 1744.3251935 -126.89853413 1743.79193204 -130.40234375 1743.328125 C-147.37885487 1740.7762418 -163.96353315 1735.79353993 -180.40234375 1730.953125 C-181.15107758 1730.73293701 -181.8998114 1730.51274902 -182.67123413 1730.28588867 C-195.20147661 1726.58894267 -195.20147661 1726.58894267 -198.74926758 1725.14941406 C-201.35969041 1724.12147554 -203.91181841 1723.50372547 -206.6484375 1722.890625 C-213.42369975 1721.23585174 -219.75755627 1718.81413518 -226.21484375 1716.203125 C-228.01937012 1715.48225708 -228.01937012 1715.48225708 -229.86035156 1714.74682617 C-232.37192191 1713.74277716 -234.88130442 1712.73350481 -237.38916016 1711.72021484 C-241.05860916 1710.23832426 -244.73612046 1708.77709606 -248.4140625 1707.31640625 C-250.74383182 1706.38366686 -253.07327154 1705.45010371 -255.40234375 1704.515625 C-256.44656494 1704.10119141 -257.49078613 1703.68675781 -258.56665039 1703.25976562 C-265.89859186 1700.29074201 -272.92896098 1696.88256771 -279.97607422 1693.30639648 C-284.1607648 1691.18666496 -288.38330498 1689.15210073 -292.6171875 1687.1328125 C-294.02803259 1686.45711016 -295.43883989 1685.78132893 -296.84960938 1685.10546875 C-298.98258791 1684.08441702 -301.11647654 1683.06549539 -303.25317383 1682.05224609 C-310.50700375 1678.60866609 -317.59047278 1675.19588158 -324.17700195 1670.55712891 C-327.55308854 1668.24298032 -331.17243867 1666.38229056 -334.77734375 1664.453125 C-342.10950257 1660.45953944 -349.06405697 1656.09273338 -355.953125 1651.3828125 C-358.42842975 1649.69634113 -360.91006197 1648.07603064 -363.46484375 1646.515625 C-371.38781236 1641.62553469 -378.79585709 1635.99827371 -386.21484375 1630.38671875 C-388.82316555 1628.44781996 -391.46667878 1626.59480386 -394.15234375 1624.765625 C-399.11343837 1621.33347126 -403.69018771 1617.49342848 -408.2890625 1613.6015625 C-410.66311745 1611.61292711 -413.06338227 1609.70238141 -415.52734375 1607.828125 C-419.59285722 1604.70080695 -423.50401959 1601.40956744 -427.40234375 1598.078125 C-427.99321777 1597.57490723 -428.5840918 1597.07168945 -429.19287109 1596.55322266 C-431.77228896 1594.33593082 -434.25083737 1592.10416969 -436.65234375 1589.69140625 C-439.58891973 1586.76859547 -442.7200622 1584.16347427 -445.90234375 1581.515625 C-451.08981742 1577.14491114 -455.70167718 1572.58599087 -460.140625 1567.44140625 C-462.62364423 1564.67874602 -465.33507779 1562.32389855 -468.1640625 1559.92578125 C-470.35922339 1558.0238835 -472.45128415 1556.04679683 -474.52734375 1554.015625 C-475.17445313 1553.38269531 -475.8215625 1552.74976563 -476.48828125 1552.09765625 C-478.15234375 1550.203125 -478.15234375 1550.203125 -479.15625 1548.16015625 C-480.34490949 1545.82478996 -481.67862946 1544.71532356 -483.71484375 1543.078125 C-489.70714742 1538.00602884 -495.74408156 1532.35438942 -499.15234375 1525.203125 C-500.29621212 1524.02561344 -501.44553741 1522.85279403 -502.625 1521.7109375 C-509.49578485 1514.92801435 -515.19646848 1507.27791711 -520.921875 1499.5390625 C-523.11447852 1496.57928308 -525.34159629 1493.6508536 -527.6015625 1490.7421875 C-541.6797653 1472.62086036 -541.6797653 1472.62086036 -544.15234375 1465.203125 C-544.81234375 1465.203125 -545.47234375 1465.203125 -546.15234375 1465.203125 C-547.93781234 1462.73704189 -549.5912413 1460.27362147 -551.21484375 1457.703125 C-551.70654053 1456.93427979 -552.1982373 1456.16543457 -552.70483398 1455.37329102 C-556.27150993 1449.73984602 -559.59570165 1443.99913463 -562.8046875 1438.15625 C-565.43767509 1433.38688814 -568.2765015 1428.78939685 -571.21484375 1424.203125 C-574.7988566 1418.56545916 -577.98336805 1412.8582446 -580.89379883 1406.84692383 C-582.98447882 1402.52875149 -585.15636415 1398.26540678 -587.3984375 1394.0234375 C-587.97553467 1392.9295874 -588.55263184 1391.8357373 -589.1472168 1390.70874023 C-590.28808994 1388.55188853 -591.43382383 1386.39759846 -592.58520508 1384.24633789 C-595.56403978 1378.59371631 -598.06128063 1373.0203827 -600.14648438 1366.9831543 C-602.37251533 1360.83077215 -605.21491525 1354.91668516 -607.91015625 1348.95898438 C-614.20880673 1334.86663858 -619.23530765 1320.34359026 -624.08984375 1305.703125 C-624.47861694 1304.53257568 -624.47861694 1304.53257568 -624.87524414 1303.33837891 C-630.86413235 1285.27419936 -636.65065697 1267.29336379 -640.12890625 1248.5546875 C-641.0786403 1243.46311125 -642.19090111 1238.41360813 -643.31103516 1233.35717773 C-648.49750352 1209.85548489 -652.43754428 1186.11658899 -655.15234375 1162.203125 C-655.29589963 1160.94118364 -655.29589963 1160.94118364 -655.44235563 1159.65374851 C-657.9289984 1136.49816129 -657.43894372 1113.19603789 -657.41379309 1089.94237137 C-657.40922453 1083.68187283 -657.41627395 1077.421385 -657.42175293 1071.16088867 C-657.43009251 1059.63438162 -657.4294263 1048.1079014 -657.42392999 1036.58139372 C-657.41887593 1025.92852781 -657.4175961 1015.2756696 -657.41997528 1004.62280273 C-657.42012805 1003.91300827 -657.42028082 1003.2032138 -657.42043822 1002.47191042 C-657.42106101 999.58979204 -657.42169783 996.70767366 -657.42235775 993.82555529 C-657.42845997 966.85241083 -657.42295395 939.87927974 -657.41216395 912.90613735 C-657.40267451 889.0025219 -657.40352384 865.09892776 -657.41308594 841.1953125 C-657.42382195 814.26787235 -657.42802701 787.34044401 -657.42186141 760.41300201 C-657.42122009 757.53648377 -657.4205944 754.65996552 -657.41997528 751.78344727 C-657.41981713 751.07530363 -657.41965897 750.36715999 -657.41949602 749.63755745 C-657.41723209 738.99787032 -657.41986095 728.35819179 -657.42493439 717.71850586 C-657.43068139 705.606728 -657.42897272 693.49498165 -657.4183729 681.38320541 C-657.41315082 675.21487759 -657.41099968 669.04659279 -657.4176712 662.87826538 C-657.46558451 614.51713561 -657.46558451 614.51713561 -655.15234375 594.203125 C-654.99220928 592.79007914 -654.99220928 592.79007914 -654.82883978 591.3484869 C-654.12853347 585.28633359 -653.3293758 579.24393371 -652.46484375 573.203125 C-652.33806244 572.30077118 -652.21128113 571.39841736 -652.08065796 570.46871948 C-649.09379167 549.32906528 -645.04122152 528.4425481 -639.77563477 507.74829102 C-639.03678454 504.73124692 -638.48491631 501.70240553 -637.96484375 498.640625 C-630.72487399 462.07138998 -616.68921598 425.00382917 -600.64453125 391.47265625 C-599.2501146 388.41735066 -598.08882601 385.3658634 -596.96484375 382.203125 C-593.4334995 372.74748611 -588.42461094 363.96822113 -583.67919922 355.08056641 C-582.26560357 352.41656923 -580.87686017 349.74171928 -579.5 347.05859375 C-575.242137 338.78491467 -570.77905716 330.75848481 -565.765625 322.91723633 C-563.04739295 318.66571131 -560.49025505 314.35701016 -558.02734375 309.953125 C-554.39720862 303.53398361 -550.69636559 297.02715299 -546.15234375 291.203125 C-545.49234375 291.203125 -544.83234375 291.203125 -544.15234375 291.203125 C-543.87132812 290.45675781 -543.5903125 289.71039063 -543.30078125 288.94140625 C-534.97991373 269.10151465 -514.89342943 245.79841667 -499.6796875 230.74609375 C-497.57468147 228.61955313 -495.76952922 226.29037115 -493.90234375 223.953125 C-486.19198636 214.4818377 -486.19198636 214.4818377 -482.15234375 211.203125 C-481.49234375 211.203125 -480.83234375 211.203125 -480.15234375 211.203125 C-479.96285156 210.5225 -479.77335938 209.841875 -479.578125 209.140625 C-477.58089626 205.0257866 -474.61346703 202.34580334 -471.33984375 199.203125 C-470.72302734 198.59984375 -470.10621094 197.9965625 -469.47070312 197.375 C-468.25882275 196.19016477 -467.04427721 195.00804857 -465.8269043 193.82885742 C-462.77859041 190.86942862 -459.78713033 187.85711521 -456.828125 184.80859375 C-451.96881014 179.83683193 -447.00772385 175.30449728 -441.4765625 171.08984375 C-438.8454041 168.95396223 -436.52770682 166.61906104 -434.15234375 164.203125 C-426.71867116 157.11998332 -418.89185124 150.73331359 -410.77441406 144.46533203 C-408.47950771 142.67956053 -406.22314266 140.84735634 -403.96484375 139.015625 C-398.82551162 134.89240265 -393.50211693 131.0468696 -388.15234375 127.203125 C-386.29760728 125.84973887 -384.44343743 124.49557587 -382.58984375 123.140625 C-375.59764693 118.06082389 -368.59555266 113.08024229 -361.25170898 108.52172852 C-359.24412736 107.26077395 -357.26156619 105.96931132 -355.28515625 104.66015625 C-347.25478326 99.3517746 -339.1425198 94.36728056 -330.65673828 89.81567383 C-326.68475234 87.67195191 -322.89113113 85.39232161 -319.125 82.90234375 C-312.06072082 78.3589226 -304.54125906 74.85609297 -296.96484375 71.265625 C-294.85889389 70.2602745 -292.75392572 69.25289795 -290.64927673 68.24482727 C-289.24688088 67.57341612 -287.84385362 66.90332221 -286.44020081 66.23454285 C-282.25424958 64.23450641 -278.10468329 62.17453876 -273.97146606 60.06787109 C-266.33104426 56.18084325 -258.61008255 52.81289711 -250.58984375 49.765625 C-248.1587719 48.82833836 -245.72778359 47.89083499 -243.296875 46.953125 C-242.1001416 46.49421875 -240.9034082 46.0353125 -239.67041016 45.5625 C-236.34617447 44.27802087 -233.03448448 42.96647019 -229.7265625 41.640625 C-228.71988525 41.23900146 -227.71320801 40.83737793 -226.67602539 40.42358398 C-224.82833031 39.68547081 -222.9822756 38.94322851 -221.13842773 38.19555664 C-215.1181865 35.80860385 -209.03224808 33.9565799 -202.79394531 32.22338867 C-199.19063822 31.21385392 -195.61054614 30.14607381 -192.03125 29.0546875 C-176.82027204 24.42297815 -161.58771635 20.03664015 -146.15234375 16.203125 C-144.95222656 15.89761719 -143.75210938 15.59210938 -142.515625 15.27734375 C-136.51450904 13.80906569 -130.49570606 12.74645213 -124.39453125 11.80859375 C-117.97145721 10.80929166 -111.55532289 9.77829702 -105.14453125 8.703125 C-84.51624081 5.27487374 -64.01287177 2.72296126 -43.15234375 1.203125 C-42.07241653 1.11579605 -40.99248932 1.0284671 -39.87983704 0.93849182 C-26.59778018 -0.03646835 -13.31174886 0.01988051 0 0 Z M-41.93804932 149.92884827 C-45.60335009 150.24160951 -49.27074504 150.51346186 -52.93945312 150.78320312 C-82.70442449 153.01352915 -111.81590979 159.61278582 -140.31542969 168.34082031 C-142.85066748 169.11142788 -145.39126776 169.85087522 -147.94140625 170.5703125 C-165.88738865 175.64354659 -183.23552214 182.07134943 -200.16333008 189.89208984 C-203.1426494 191.19887288 -206.14685776 192.32403761 -209.203125 193.4375 C-216.09732706 196.07184217 -222.45709994 199.37671738 -228.90234375 202.953125 C-231.17801633 204.19989267 -233.4540585 205.44598597 -235.73046875 206.69140625 C-236.82552734 207.29291504 -237.92058594 207.89442383 -239.04882812 208.51416016 C-242.517709 210.40196049 -246.01506974 212.22731915 -249.52392578 214.03930664 C-255.40023238 217.07991447 -260.97602602 220.26371071 -266.30859375 224.19921875 C-270.27679367 226.9954915 -274.4051073 229.51650655 -278.52734375 232.078125 C-287.0277354 237.38672567 -295.03509443 243.06307635 -302.83203125 249.37109375 C-305.15234375 251.203125 -305.15234375 251.203125 -307.40234375 252.515625 C-312.52073956 255.65645879 -317.31783255 259.33542363 -321.52734375 263.62109375 C-324.87764983 266.91655851 -328.54258699 269.60603394 -332.3359375 272.36523438 C-336.24758921 275.2874683 -339.09241424 278.39874956 -342.15234375 282.203125 C-343.36836396 283.36477032 -344.61584773 284.49504929 -345.90234375 285.578125 C-346.58683594 286.16464844 -347.27132812 286.75117188 -347.9765625 287.35546875 C-348.69457031 287.96519531 -349.41257812 288.57492187 -350.15234375 289.203125 C-355.20298491 293.52355298 -359.85933784 297.8628738 -364.14453125 302.9453125 C-366.66928493 305.7844324 -369.3763224 308.42211485 -372.08984375 311.078125 C-376.55226715 315.46253883 -380.5349175 320.00751836 -384.35546875 324.97265625 C-386.03288139 327.05483585 -387.77800702 328.86484412 -389.71484375 330.703125 C-393.22024052 334.08047074 -395.85803343 337.8730998 -398.57421875 341.8984375 C-400.15234375 344.203125 -400.15234375 344.203125 -402.58984375 347.203125 C-404.35755843 349.04280103 -404.35755843 349.04280103 -404.15234375 351.203125 C-404.81234375 351.203125 -405.47234375 351.203125 -406.15234375 351.203125 C-408.01655165 353.58191591 -409.75240689 355.96740007 -411.46484375 358.453125 C-411.99102295 359.20730713 -412.51720215 359.96148926 -413.05932617 360.73852539 C-417.72340541 367.47293032 -422.19342739 374.33075647 -426.6237793 381.22045898 C-429.87156537 386.26701889 -433.1931097 391.22404727 -436.78515625 396.03515625 C-438.2490758 398.3565144 -439.24560559 400.75561489 -440.29052734 403.28686523 C-441.86942812 406.79757123 -443.91269623 410.03861473 -445.90234375 413.328125 C-452.06203478 423.68602237 -457.81241257 433.82102265 -461.984375 445.17578125 C-463.01124386 447.83739785 -464.14716904 450.30221701 -465.46484375 452.828125 C-472.93909967 467.3159478 -478.25840062 482.71303048 -483.21484375 498.203125 C-483.51704834 499.14188477 -483.81925293 500.08064453 -484.13061523 501.04785156 C-497.87136816 542.28942335 -497.87136816 542.28942335 -503.15234375 585.203125 C-474.89192536 585.29674702 -446.63153037 585.36719164 -418.37098789 585.41037369 C-405.24784205 585.43096067 -392.12479281 585.45900722 -379.00170898 585.50488281 C-367.55782708 585.54486904 -356.11401517 585.57058587 -344.67006534 585.57947898 C-338.61584263 585.58467378 -332.5618201 585.59680252 -326.50766182 585.62604523 C-320.79739756 585.65340075 -315.08741402 585.66152962 -309.37709045 585.65555573 C-307.29272875 585.65664701 -305.20835665 585.66447984 -303.12405205 585.6799469 C-285.76177406 585.80235717 -270.43375826 584.14781755 -255.15234375 575.203125 C-253.73501953 574.41615234 -253.73501953 574.41615234 -252.2890625 573.61328125 C-245.26196388 569.48255246 -240.22549667 564.54456615 -235.15234375 558.203125 C-234.45109375 557.3471875 -233.74984375 556.49125 -233.02734375 555.609375 C-220.67457231 539.70050269 -218.98694503 523.4895137 -219.03881836 503.90942383 C-219.03910103 502.40043133 -219.03894095 500.8914387 -219.03837585 499.38244629 C-219.03809098 495.3191654 -219.04393728 491.25591451 -219.05094981 487.19264054 C-219.05723527 482.93390448 -219.05779124 478.6751676 -219.05897522 474.41642761 C-219.0620733 466.366738 -219.07026602 458.3170621 -219.08032471 450.26737851 C-219.09363245 439.3793509 -219.09899806 428.49131949 -219.10482693 417.60328579 C-219.11420705 400.46988861 -219.1341361 383.33652035 -219.15234375 366.203125 C-170.31234375 366.203125 -121.47234375 366.203125 -71.15234375 366.203125 C-71.32251212 406.35390331 -71.32251212 406.35390331 -71.41015625 423.265625 C-71.47042224 434.91176575 -71.52877272 446.55789229 -71.57421875 458.20410156 C-71.60733586 466.68849882 -71.64727317 475.17283305 -71.69513381 483.6571604 C-71.72020452 488.1424532 -71.74204112 492.62770524 -71.75568771 497.11304855 C-71.768687 501.35002289 -71.79092578 505.58685602 -71.81972694 509.82375145 C-71.82866535 511.36423002 -71.83445998 512.90473123 -71.83655739 514.4452343 C-71.86060298 529.44738333 -73.12057421 544.24576779 -76.52734375 558.890625 C-76.74938477 559.86628418 -76.97142578 560.84194336 -77.20019531 561.84716797 C-77.64249562 563.77196979 -78.09015197 565.69555112 -78.54394531 567.61767578 C-79.06428728 569.82892034 -79.56088582 572.04361253 -80.05078125 574.26171875 C-83.74197436 589.7207064 -90.76812434 604.26789737 -98.453125 618.11328125 C-99.78514175 620.53540827 -100.99708648 622.9458636 -102.15234375 625.453125 C-106.03656894 633.34135326 -112.09906392 640.22044949 -117.515625 647.09765625 C-119.04310731 649.06260366 -120.50529323 651.06255523 -121.96484375 653.078125 C-127.27488849 660.18673328 -133.20163593 666.69460773 -140.15234375 672.203125 C-141.82567967 673.86309562 -143.49203591 675.53012368 -145.15234375 677.203125 C-153.91228811 685.14563723 -163.18170922 691.87056918 -173.15234375 698.203125 C-174.28003159 698.93346457 -175.40763861 699.66392895 -176.53515625 700.39453125 C-183.81693868 705.01802443 -191.21033975 708.85779663 -199.15234375 712.203125 C-200.02938965 712.57727539 -200.90643555 712.95142578 -201.81005859 713.33691406 C-242.41847527 730.54352825 -280.16927007 731.66813653 -323.70917511 731.70960236 C-329.60291728 731.71794038 -335.49655463 731.7423309 -341.39025879 731.76525879 C-358.54007454 731.82288463 -375.68996763 731.85526726 -392.83984375 731.890625 C-450.41453125 732.0453125 -450.41453125 732.0453125 -509.15234375 732.203125 C-509.15234375 828.563125 -509.15234375 924.923125 -509.15234375 1024.203125 C-460.97234375 1024.203125 -412.79234375 1024.203125 -363.15234375 1024.203125 C-363.15234375 1072.713125 -363.15234375 1121.223125 -363.15234375 1171.203125 C-409.35234375 1171.203125 -455.55234375 1171.203125 -503.15234375 1171.203125 C-496.09569869 1220.5996404 -483.41769639 1270.20505238 -460.33984375 1314.79296875 C-459.31317842 1316.8766941 -458.51148726 1318.88028287 -457.77734375 1321.078125 C-455.73360646 1326.86273815 -452.34155593 1332.06829007 -449.24609375 1337.33886719 C-447.46921075 1340.3675008 -445.71367067 1343.40822162 -443.96484375 1346.453125 C-443.6304126 1347.03392822 -443.29598145 1347.61473145 -442.95141602 1348.21313477 C-440.5614191 1352.39755917 -438.38499717 1356.64998686 -436.35546875 1361.01953125 C-434.8924163 1363.67487644 -433.05065547 1365.83790357 -431.15234375 1368.203125 C-429.40869959 1370.77150488 -427.75288121 1373.39454636 -426.08984375 1376.015625 C-422.2041477 1382.08205531 -418.23990214 1388.08318446 -414.15234375 1394.015625 C-413.69593506 1394.67860596 -413.23952637 1395.34158691 -412.76928711 1396.0246582 C-411.57127657 1397.75631372 -410.36316003 1399.48041452 -409.15234375 1401.203125 C-408.59546875 1402.01136719 -408.03859375 1402.81960938 -407.46484375 1403.65234375 C-406.81515625 1404.41998047 -406.81515625 1404.41998047 -406.15234375 1405.203125 C-405.49234375 1405.203125 -404.83234375 1405.203125 -404.15234375 1405.203125 C-403.87261719 1405.780625 -403.59289062 1406.358125 -403.3046875 1406.953125 C-399.71035249 1413.97121641 -394.8999033 1419.76686301 -389.52685547 1425.48291016 C-386.15543601 1429.07525848 -382.97261008 1432.77709663 -379.83984375 1436.578125 C-375.23327288 1442.13187267 -370.2708019 1447.24288544 -365.09838867 1452.27099609 C-361.69838302 1455.58771418 -358.56198369 1459.01684088 -355.50317383 1462.64990234 C-353.85091165 1464.54972016 -352.07367165 1466.20300182 -350.15234375 1467.828125 C-349.47558594 1468.40691406 -348.79882812 1468.98570313 -348.1015625 1469.58203125 C-346.90355561 1470.57836964 -345.6991603 1471.56715761 -344.484375 1472.54296875 C-341.97762363 1474.55996921 -339.94729399 1476.4667604 -337.96484375 1479.015625 C-334.91283734 1482.87288391 -330.89403079 1485.41283713 -326.87109375 1488.17578125 C-324.01051498 1490.30888525 -321.64967197 1492.65882509 -319.15234375 1495.203125 C-312.27927101 1501.30102481 -312.27927101 1501.30102481 -304.58984375 1506.265625 C-301.57252226 1507.96629711 -299.25660625 1509.69111304 -296.609375 1511.890625 C-291.44256404 1516.06481362 -286.040347 1519.64086527 -280.40234375 1523.140625 C-278.45282097 1524.36279642 -276.50360154 1525.58545185 -274.5546875 1526.80859375 C-273.15645752 1527.68330322 -273.15645752 1527.68330322 -271.72998047 1528.57568359 C-269.56253328 1529.94414381 -267.41541076 1531.3344036 -265.28125 1532.75390625 C-257.4516521 1537.94597176 -249.3854239 1542.34462403 -241.04296875 1546.6484375 C-236.18387803 1549.1632981 -231.41762558 1551.82843222 -226.65234375 1554.515625 C-217.23759191 1559.78366597 -207.74447565 1564.05225454 -197.61230469 1567.76269531 C-192.25592679 1569.73978114 -187.01948559 1571.94289905 -181.77734375 1574.203125 C-165.71606334 1581.05378571 -149.10654604 1585.78708692 -132.2734375 1590.35498047 C-130.27216405 1590.89881839 -128.2720465 1591.44693867 -126.2734375 1592.00048828 C-119.59324856 1593.85022414 -112.89104525 1595.57930292 -106.15234375 1597.203125 C-105.09144531 1597.45980957 -104.03054688 1597.71649414 -102.9375 1597.98095703 C-79.61823312 1603.47404571 -56.00830317 1605.55445167 -32.15234375 1607.203125 C-30.35133713 1607.33366524 -30.35133713 1607.33366524 -28.51394653 1607.46684265 C-16.63235302 1608.28040738 -4.77682747 1608.36675297 7.12890625 1608.37109375 C9.23864768 1608.37431798 11.34838889 1608.37768287 13.45812988 1608.38117981 C17.85181191 1608.38712209 22.2454744 1608.38902464 26.63916016 1608.38842773 C32.22300609 1608.38832601 37.80672518 1608.40201104 43.39054108 1608.41919994 C47.73871417 1608.43040243 52.08685729 1608.43234448 56.43504333 1608.43181801 C58.49198343 1608.43298446 60.54892466 1608.4373295 62.60585022 1608.44515038 C74.86622061 1608.48743454 86.70281584 1607.93676256 98.84765625 1606.203125 C100.3220479 1606.01014964 101.79669576 1605.81912192 103.27159119 1605.6300354 C121.30017376 1603.28561577 137.78802701 1595.07891201 152.84765625 1585.203125 C154.04648438 1584.47222656 154.04648438 1584.47222656 155.26953125 1583.7265625 C169.65938661 1574.74603233 185.09454125 1560.83004085 193.84765625 1546.203125 C193.84765625 1545.543125 193.84765625 1544.883125 193.84765625 1544.203125 C194.50765625 1544.203125 195.16765625 1544.203125 195.84765625 1544.203125 C196.35554687 1543.18734375 196.8634375 1542.1715625 197.38671875 1541.125 C197.71687988 1540.46508057 198.04704102 1539.80516113 198.38720703 1539.12524414 C199.11864926 1537.66153709 199.8487656 1536.1971668 200.57763672 1534.73217773 C202.19084894 1531.49337661 203.81431075 1528.26627698 205.50390625 1525.06640625 C217.64286549 1501.91844408 220.03642921 1477.25410748 219.96791077 1451.39614868 C219.96876519 1450.18770589 219.96961962 1448.9792631 219.97049993 1447.73420084 C219.97184891 1444.4251479 219.96877498 1441.1161558 219.96372187 1437.80711031 C219.95936381 1434.22177422 219.96086756 1430.63643968 219.96162415 1427.05110168 C219.96214601 1420.85422963 219.9590346 1414.65736819 219.95338631 1408.46049881 C219.94522539 1399.50109885 219.9426514 1390.54170398 219.94139832 1381.58230071 C219.93921498 1367.04281997 219.93257444 1352.50334487 219.9230957 1337.96386719 C219.91390295 1323.84830758 219.90683125 1309.7327495 219.90258789 1295.6171875 C219.90232517 1294.74567592 219.90206244 1293.87416435 219.90179176 1292.97624333 C219.90048663 1288.60369935 219.89922294 1284.23115535 219.89797986 1279.85861135 C219.88762963 1243.64011192 219.87003095 1207.4216189 219.84765625 1171.203125 C200.17530893 1171.10938254 180.5030074 1171.03899999 160.83048248 1170.99587631 C151.69469198 1170.97531457 142.55904085 1170.94731726 133.42333984 1170.90136719 C125.4539303 1170.8613026 117.48462177 1170.83564586 109.51511431 1170.82677102 C105.30138665 1170.82158923 101.08794778 1170.80954609 96.87431335 1170.78020477 C92.89503645 1170.75272417 88.91616279 1170.74474461 84.9368 1170.75069427 C83.48897154 1170.74960842 82.04112727 1170.74185104 80.59338188 1170.7263031 C59.3025843 1170.50918438 40.23036092 1177.37654878 24.16015625 1191.578125 C8.35758582 1209.51617792 1.49560805 1227.66317371 1.62060547 1251.47509766 C1.62117063 1252.99379468 1.62085098 1254.51249225 1.61972046 1256.03118896 C1.61915004 1260.12555626 1.6308536 1264.21980476 1.64486837 1268.31414461 C1.65742795 1272.60357837 1.65855034 1276.89301529 1.66091919 1281.1824646 C1.66711867 1289.29241415 1.68350861 1297.40230935 1.70361817 1305.51223505 C1.73022026 1316.4801711 1.7409622 1327.44812217 1.7526226 1338.41608238 C1.77139041 1355.67847058 1.81124626 1372.94074412 1.84765625 1390.203125 C-46.66234375 1390.203125 -95.17234375 1390.203125 -145.15234375 1390.203125 C-145.02247842 1349.67170692 -145.02247842 1349.67170692 -144.94335938 1332.57617188 C-144.88904938 1320.8117821 -144.83762955 1309.04743427 -144.8059082 1297.28295898 C-144.78278299 1288.7117127 -144.74922606 1280.14057828 -144.70364219 1271.56942099 C-144.67990373 1267.03985886 -144.66104915 1262.51040617 -144.65472984 1257.98078346 C-144.59868395 1222.42193021 -144.59868395 1222.42193021 -141.5306797 1206.25276756 C-140.99807707 1203.36738218 -140.57300097 1200.46841563 -140.14684582 1197.56568623 C-137.41083108 1179.85246088 -130.53713514 1163.41713395 -123.15234375 1147.203125 C-122.83040039 1146.47996094 -122.50845703 1145.75679687 -122.17675781 1145.01171875 C-117.27551112 1134.07856739 -110.82198167 1124.71198937 -103.61669922 1115.16699219 C-101.74897022 1112.66215523 -99.9890357 1110.08724946 -98.21484375 1107.515625 C-83.93096101 1087.8524928 -64.11782642 1070.21345594 -42.953125 1058.4296875 C-42.35886719 1058.02492188 -41.76460937 1057.62015625 -41.15234375 1057.203125 C-41.15234375 1056.543125 -41.15234375 1055.883125 -41.15234375 1055.203125 C-40.51296875 1054.97625 -39.87359375 1054.749375 -39.21484375 1054.515625 C-36.64857389 1053.41579506 -34.37578824 1052.21741039 -31.96484375 1050.828125 C-28.14340118 1048.67739468 -24.32768968 1046.98123297 -20.234375 1045.421875 C-17.82613239 1044.46956614 -15.46747304 1043.47121375 -13.1015625 1042.421875 C5.46759093 1034.23579764 24.00554121 1028.50853347 44.2478199 1026.47135067 C45.8186244 1026.30929044 47.38841613 1026.13613743 48.95557976 1025.9420023 C56.93667755 1025.00564218 64.9224293 1025.02842441 72.94580078 1024.99780273 C74.57902708 1024.98807094 76.21225095 1024.97792462 77.84547234 1024.96740055 C82.19371401 1024.94051352 86.54196564 1024.91925194 90.89024353 1024.89920807 C94.98015393 1024.8794877 99.07002699 1024.85462402 103.15991211 1024.8302002 C115.09746522 1024.76187648 127.03506408 1024.70174441 138.97265625 1024.640625 C179.00578125 1024.4240625 179.00578125 1024.4240625 219.84765625 1024.203125 C219.84765625 927.843125 219.84765625 831.483125 219.84765625 732.203125 C171.66765625 732.203125 123.48765625 732.203125 73.84765625 732.203125 C73.84765625 683.693125 73.84765625 635.183125 73.84765625 585.203125 C122.02765625 585.203125 170.20765625 585.203125 219.84765625 585.203125 C219.93517227 533.88379641 219.93517227 533.88379641 219.99414062 482.56445312 C220.00001273 475.61726866 220.00607374 468.67008441 220.01245117 461.72290039 C220.01324242 460.85238865 220.01403366 459.98187691 220.01484889 459.08498603 C220.02783624 445.09859645 220.05145362 431.11224452 220.07911464 417.12587713 C220.10733905 402.73276184 220.12386816 388.33966603 220.12992173 373.9465242 C220.1340032 365.09149348 220.14681122 356.23656919 220.17140565 347.3815713 C220.18747418 341.27900913 220.19200991 335.17650058 220.18816038 329.07391887 C220.18627096 325.57237015 220.18880408 322.07100501 220.20527267 318.56949043 C220.26311936 304.09243784 219.85264043 289.77616916 218.47090149 275.36854553 C218.34875438 274.08308852 218.22660727 272.7976315 218.10075873 271.47322124 C217.12978089 262.16100784 215.40963565 253.87094456 211.84765625 245.203125 C211.38230469 244.00300781 210.91695312 242.80289063 210.4375 241.56640625 C207.62590359 234.6311351 204.26542507 228.24490777 200.39453125 221.84765625 C198.56030795 218.71187551 197.15497905 215.58678402 195.84765625 212.203125 C195.18765625 212.203125 194.52765625 212.203125 193.84765625 212.203125 C193.57824219 211.625625 193.30882812 211.048125 193.03125 210.453125 C184.96083686 195.11134952 168.40497217 180.0141291 153.39453125 171.6484375 C151.59440856 170.62689548 149.83619937 169.52978371 148.11328125 168.3828125 C131.16494965 157.18637582 112.88272153 151.62943439 92.84765625 149.203125 C91.76840881 149.06604378 91.76840881 149.06604378 90.6673584 148.92619324 C80.68223496 147.8373871 70.6396922 148.03882684 60.609375 148.03515625 C58.52220132 148.03193306 56.43502785 148.02856824 54.34785461 148.02507019 C49.97286458 148.01909864 45.59789421 148.01722783 41.22290039 148.01782227 C36.79837911 148.01790294 32.37396264 148.0110536 27.94946289 147.99731445 C4.59122603 147.92582346 -18.6521299 147.90096176 -41.93804932 149.92884827 Z " fill="#1E90FF" transform="translate(657.15234375,145.796875)"/>
<path d="M0 0 C62.54495988 -0.44364484 62.54495988 -0.44364484 88.68554688 -0.53710938 C94.66854177 -0.55864475 100.65153349 -0.58086971 106.63452148 -0.60424805 C107.38435293 -0.60714928 108.13418437 -0.61005052 108.90673798 -0.61303967 C120.99962407 -0.66083398 133.09193261 -0.74752793 145.18447665 -0.84868076 C157.6022 -0.95168444 170.0196218 -1.01267503 182.43775481 -1.03497344 C190.09583952 -1.05003956 197.7522924 -1.09755199 205.40987452 -1.18708114 C211.28975336 -1.25230856 217.1688027 -1.25897343 223.04905319 -1.24418449 C225.4553079 -1.24720438 227.86162584 -1.26900298 230.26751137 -1.31126022 C250.34872457 -1.64659178 250.34872457 -1.64659178 256.37725705 3.7783739 C258.49025188 6.03769811 260.25934093 8.44614817 262 11 C264.42228111 14.10047427 266.72690358 16.795335 269.75 19.3125 C274.86144558 23.6896521 279.85112826 28.24675808 284 33.5625 C286.35999322 36.43874174 289.02357708 38.69043261 291.84375 41.10546875 C296.2095382 44.9413515 300.42112277 48.97706355 304 53.5625 C306.37940169 56.46239582 309.07135734 58.73993166 311.9140625 61.17578125 C316.09121626 64.82883519 319.93804319 68.69297624 323.4375 73 C326.07101317 76.08313736 328.87645246 78.58375125 331.94921875 81.2109375 C336.11781199 84.84753884 339.94917646 88.70667872 343.4375 93 C346.0698557 96.08178229 348.8734915 98.58149367 351.9453125 101.20703125 C355.92434378 104.67922775 359.69990476 108.32245776 362.9375 112.5 C365.3258124 115.39492412 367.99921113 117.66956699 370.84375 120.10546875 C375.2095382 123.9413515 379.42112277 127.97706355 383 132.5625 C385.35999322 135.43874174 388.02357708 137.69043261 390.84375 140.10546875 C395.2095382 143.9413515 399.42112277 147.97706355 403 152.5625 C405.35999322 155.43874174 408.02357708 157.69043261 410.84375 160.10546875 C415.2095382 163.9413515 419.42112277 167.97706355 423 172.5625 C425.35999322 175.43874174 428.02357708 177.69043261 430.84375 180.10546875 C435.2095382 183.9413515 439.42112277 187.97706355 443 192.5625 C445.35999322 195.43874174 448.02357708 197.69043261 450.84375 200.10546875 C455.2095382 203.9413515 459.42112277 207.97706355 463 212.5625 C465.35999322 215.43874174 468.02357708 217.69043261 470.84375 220.10546875 C475.2095382 223.9413515 479.42112277 227.97706355 483 232.5625 C485.37940169 235.46239582 488.07135734 237.73993166 490.9140625 240.17578125 C495.09121626 243.82883519 498.93804319 247.69297624 502.4375 252 C505.0698557 255.08178229 507.8734915 257.58149367 510.9453125 260.20703125 C514.92434378 263.67922775 518.69990476 267.32245776 521.9375 271.5 C524.3258124 274.39492412 526.99921113 276.66956699 529.84375 279.10546875 C534.2095382 282.9413515 538.42112277 286.97706355 542 291.5625 C544.36083016 294.43976175 547.02420577 296.69212839 549.84765625 299.10546875 C553.40165638 302.23376288 556.68367025 305.62409546 560 309 C561.66547831 310.66785417 563.33189345 312.33477446 565 314 C565.52094238 313.764021 566.04188477 313.52804199 566.57861328 313.28491211 C617.98810259 290.17807674 678.21309608 284.76218182 731.76171875 304.92578125 C745.56844059 310.31824297 759.24710866 316.07409622 772.0625 323.5625 C772.77688232 323.97991455 773.49126465 324.3973291 774.22729492 324.82739258 C775.85909767 325.82065486 777.43712278 326.90147145 779 328 C779 328.66 779 329.32 779 330 C779.71671875 330.26683594 780.4334375 330.53367187 781.171875 330.80859375 C789.27391159 334.22174452 795.70522671 339.364538 801.69921875 345.69921875 C804.09980923 348.09980923 806.62528545 350.11538463 809.3125 352.1875 C815.62378639 357.23476125 820.5432694 363.19444782 825.65576172 369.40185547 C827.44427405 371.52819069 829.34617361 373.53945161 831.25 375.5625 C835.3432236 380.1200809 843 388.78066911 843 395 C843.66 395 844.32 395 845 395 C845.28721924 395.51908936 845.57443848 396.03817871 845.87036133 396.57299805 C847.1834974 398.94500387 848.49798679 401.31625711 849.8125 403.6875 C850.26431641 404.50412109 850.71613281 405.32074219 851.18164062 406.16210938 C853.84788561 410.97316965 853.84788561 410.97316965 856.6796875 415.6875 C858.27241696 418.47713266 859.27325262 421.2733264 860.3125 424.3125 C861.9103371 428.91350082 863.54768103 433.48612593 865.28833008 438.03491211 C872.99748592 458.22555837 878.10314192 478.80083355 878.203125 500.4921875 C878.20882507 501.47760529 878.21452515 502.46302307 878.22039795 503.478302 C878.22979654 505.55746404 878.23636133 507.63664064 878.24023438 509.71582031 C878.24986603 512.83165958 878.28090879 515.94681706 878.3125 519.0625 C878.37890013 531.6607975 877.48956742 543.64593895 875 556 C874.85013138 556.74483643 874.70026276 557.48967285 874.54585266 558.25708008 C869.24324953 584.19170401 858.84036766 609.72187039 844.15234375 631.75390625 C842.19065069 634.71246692 840.34225383 637.71645039 838.5 640.75 C835.56568254 645.36298878 832.23212558 649.2995095 828.49609375 653.28125 C826.68851277 655.25007059 824.97406988 657.21616111 823.28515625 659.28125 C816.41794281 667.64657318 808.98148553 674.68890308 800.66113281 681.59716797 C798.43799763 683.47461282 796.31682179 685.45489826 794.1875 687.4375 C790.62847947 690.6128343 786.91730115 693.02506299 782.77734375 695.37890625 C780.16168006 696.90562978 777.64257421 698.53985874 775.12207031 700.21777344 C762.57247484 708.53038978 749.12684647 714.83196146 735 720 C734.23623047 720.28230469 733.47246094 720.56460938 732.68554688 720.85546875 C713.08226009 728.00949692 692.58786964 733.10678329 671.640625 733.203125 C670.65616394 733.20882507 669.67170288 733.21452515 668.65740967 733.22039795 C666.57646748 733.22980766 664.49551065 733.23636582 662.41455078 733.24023438 C659.30082475 733.24984316 656.18778758 733.28086507 653.07421875 733.3125 C622.65377672 733.47425854 594.78330282 726.05010684 567 714 C565.91460938 713.55140625 564.82921875 713.1028125 563.7109375 712.640625 C559.43368046 710.80726517 555.35108514 708.6311869 551.25 706.4375 C550.49589844 706.03853516 549.74179688 705.63957031 548.96484375 705.22851562 C545.87286027 703.58366828 542.91861487 701.94574325 540 700 C540 699.34 540 698.68 540 698 C539.28199219 697.73316406 538.56398438 697.46632813 537.82421875 697.19140625 C529.73403289 693.77853393 523.0095792 688.39486624 516.65625 682.43359375 C514.2660361 680.24373601 511.80048483 678.1949693 509.27954102 676.15869141 C502.07665643 670.29817707 496.19633989 663.74599044 490.32080078 656.57910156 C488.49727593 654.39896131 486.56147381 652.32978022 484.625 650.25 C475 639.51752092 475 639.51752092 475 634 C474.34 634 473.68 634 473 634 C460.3657652 613.34999706 450.26883103 591.4318878 444 568 C443.80325684 567.28489258 443.60651367 566.56978516 443.40380859 565.83300781 C434.25342636 531.59038113 435.20807819 489.89667344 445 456 C445.22703613 455.21238281 445.45407227 454.42476562 445.68798828 453.61328125 C449.13573179 441.9762332 453.8822075 430.98896563 459 420 C456.20501622 417.19971264 453.40274967 414.40728819 450.58984375 411.625 C449.3723565 410.41670629 448.15490926 409.20837228 446.9375 408 C446.32583984 407.39671875 445.71417969 406.7934375 445.08398438 406.171875 C441.81770183 402.92324804 438.86653698 399.61270712 436 396 C434.78165483 394.86100084 433.53170276 393.75470292 432.25 392.6875 C427.13855442 388.3103479 422.14887174 383.75324192 418 378.4375 C415.62059831 375.53760418 412.92864266 373.26006834 410.0859375 370.82421875 C405.90878374 367.17116481 402.06195681 363.30702376 398.5625 359 C395.9301443 355.91821771 393.1265085 353.41850633 390.0546875 350.79296875 C386.07565622 347.32077225 382.30009524 343.67754224 379.0625 339.5 C376.6741876 336.60507588 374.00078887 334.33043301 371.15625 331.89453125 C366.7904618 328.0586485 362.57887723 324.02293645 359 319.4375 C356.64000678 316.56125826 353.97642292 314.30956739 351.15625 311.89453125 C346.7904618 308.0586485 342.57887723 304.02293645 339 299.4375 C336.64000678 296.56125826 333.97642292 294.30956739 331.15625 291.89453125 C326.7904618 288.0586485 322.57887723 284.02293645 319 279.4375 C316.64000678 276.56125826 313.97642292 274.30956739 311.15625 271.89453125 C306.7904618 268.0586485 302.57887723 264.02293645 299 259.4375 C296.64000678 256.56125826 293.97642292 254.30956739 291.15625 251.89453125 C286.7904618 248.0586485 282.57887723 244.02293645 279 239.4375 C276.64000678 236.56125826 273.97642292 234.30956739 271.15625 231.89453125 C266.7904618 228.0586485 262.57887723 224.02293645 259 219.4375 C256.62059831 216.53760418 253.92864266 214.26006834 251.0859375 211.82421875 C246.90878374 208.17116481 243.06195681 204.30702376 239.5625 200 C236.92898683 196.91686264 234.12354754 194.41624875 231.05078125 191.7890625 C226.88218801 188.15246116 223.05082354 184.29332128 219.5625 180 C216.9301443 176.91821771 214.1265085 174.41850633 211.0546875 171.79296875 C207.07565622 168.32077225 203.30009524 164.67754224 200.0625 160.5 C197.08864079 156.89532217 193.54981154 154.02180754 190 151 C189.67 150.67 189.34 150.34 189 150 C186.55930041 149.88992855 184.14628514 149.84504214 181.70457458 149.84178162 C180.54560585 149.83437465 180.54560585 149.83437465 179.36322361 149.82681805 C176.75443977 149.8113666 174.14568068 149.80306187 171.53686523 149.79467773 C169.6746702 149.78510521 167.81247737 149.77509551 165.95028687 149.76467896 C160.87820782 149.73755601 155.8061194 149.71658659 150.7340076 149.69667697 C145.43952126 149.67486283 140.14506406 149.64745185 134.8506012 149.62062073 C124.81730688 149.57063181 114.78399644 149.52571606 104.75067049 149.48259836 C91.19791258 149.42406511 77.64519295 149.35774508 64.09246922 149.29184818 C42.72833858 149.18817657 21.36417529 149.09495189 0 149 C0 99.83 0 50.66 0 0 Z M637 444 C635.56140625 444.49306641 635.56140625 444.49306641 634.09375 444.99609375 C614.96983052 452.26821576 601.49964631 464.65007457 592.49609375 483.078125 C585.26651789 499.56587413 582.96316319 517.71452394 589 535 C592.74790171 544.4798545 597.02644363 553.45900221 604 561 C604.65355469 561.74378906 605.30710937 562.48757813 605.98046875 563.25390625 C616.84680517 574.95154709 633.93889376 584.20861312 650.1472168 585.12084961 C670.69413752 585.82762845 689.12629034 581.63212872 704.9375 567.8125 C706.63495196 566.21886773 708.32258434 564.61470853 710 563 C710.76570313 562.30648437 711.53140625 561.61296875 712.3203125 560.8984375 C717.69533389 555.5983293 720.84770852 549.79729091 723.9375 543 C724.31527588 542.16944092 724.69305176 541.33888184 725.08227539 540.4831543 C728.94758963 531.51347346 730.37823107 522.85700901 730.3125 513.125 C730.30758545 512.25294922 730.3026709 511.38089844 730.29760742 510.48242188 C730.17377228 503.63910161 729.31305334 497.47469149 727 491 C726.64808594 490.00871094 726.29617188 489.01742187 725.93359375 487.99609375 C718.47542646 468.72300798 705.59750163 455.51859374 687 447 C671.05822542 440.17959053 653.61058776 438.23761913 637 444 Z " fill="#1E90FF" transform="translate(1170,1315)"/>
<path d="M0 0 C0.96463669 -0.00570007 1.92927338 -0.01140015 2.92314148 -0.01727295 C4.96120117 -0.02668041 6.99927578 -0.03323991 9.03735352 -0.03710938 C12.08964223 -0.04672667 15.14123076 -0.0777544 18.19335938 -0.109375 C40.55662223 -0.22971502 61.68014574 3.72957499 82.88671875 10.703125 C83.75538574 10.98768555 84.62405273 11.27224609 85.51904297 11.56542969 C90.2550817 13.17002925 94.66349806 15.03173603 99.09692383 17.34130859 C101.21801442 18.39960539 103.36753509 19.08912221 105.63671875 19.765625 C123.14344678 25.91134351 143.25120121 38.93031149 155.953125 52.36328125 C158.25371856 54.62545153 160.73213041 56.57596797 163.26171875 58.578125 C168.38176846 62.70358229 172.61261873 67.17434885 176.82421875 72.203125 C178.00878851 73.55985566 179.19621431 74.9140989 180.38671875 76.265625 C180.95390625 76.91917969 181.52109375 77.57273437 182.10546875 78.24609375 C183.25530524 79.55533939 184.42228438 80.84971789 185.60546875 82.12890625 C189.49233399 86.38229606 192.50536554 90.73685287 195.375 95.73046875 C196.68763354 97.9700834 198.08844774 100.07643316 199.57421875 102.203125 C207.1328493 113.45132456 213.43057267 125.38207585 217.82421875 138.203125 C218.31823876 139.57757005 218.81446231 140.95122442 219.3125 142.32421875 C220.85792193 146.60321992 222.3477756 150.89992385 223.82421875 155.203125 C224.38302734 156.80414063 224.38302734 156.80414063 224.953125 158.4375 C230.08703862 173.98017183 232.94835544 190.76393728 233.02734375 207.125 C233.03304382 208.06506897 233.0387439 209.00513794 233.0446167 209.97369385 C233.0540234 211.96047864 233.06058336 213.94727874 233.06445312 215.93408203 C233.0740565 218.90296568 233.10507878 221.8711251 233.13671875 224.83984375 C233.2302972 241.52802922 231.48852 257.63504517 227.07421875 273.765625 C226.81817871 274.71977295 226.56213867 275.6739209 226.29833984 276.65698242 C220.30995868 298.36712016 211.22952977 318.82465675 199.82421875 338.203125 C199.16421875 338.203125 198.50421875 338.203125 197.82421875 338.203125 C197.5509375 338.92757813 197.27765625 339.65203125 196.99609375 340.3984375 C193.12083868 349.67321464 186.82289061 356.62655742 179.95361328 363.7746582 C176.72282682 367.1407452 173.71070026 370.49244865 170.94921875 374.265625 C168.32346081 377.79070504 165.52476091 380.10908315 161.9296875 382.60546875 C159.47215894 384.47027242 157.40938028 386.55233035 155.26171875 388.765625 C149.70620455 394.43509847 143.99847918 398.14965741 137.05078125 401.90234375 C134.95894845 403.12441449 133.15098464 404.44254457 131.26171875 405.953125 C123.04173403 412.31167029 113.28795898 417.62335282 103.53515625 421.1875 C100.69329129 422.25217563 97.92500863 423.45583527 95.14208984 424.66455078 C69.52652218 435.64936103 43.65865203 439.40300259 15.984375 439.33349609 C13.45957395 439.32814694 10.93495188 439.33347048 8.41015625 439.33984375 C-5.6544379 439.3479091 -19.65129739 439.23812412 -33.42578125 436.078125 C-34.38742187 435.86365723 -35.3490625 435.64918945 -36.33984375 435.42822266 C-47.50499586 432.82558467 -58.59041925 429.29195737 -68.98828125 424.4296875 C-71.94277691 423.06144839 -71.94277691 423.06144839 -74.3359375 423.25 C-76.91511968 424.58613684 -78.60969732 426.35578585 -80.61328125 428.453125 C-81.35449219 429.22140625 -82.09570312 429.9896875 -82.859375 430.78125 C-83.62378906 431.58046875 -84.38820313 432.3796875 -85.17578125 433.203125 C-89.62839094 437.74463871 -94.29470069 442.02733718 -99.00390625 446.29882812 C-101.81946093 448.88485389 -104.47682598 451.46313735 -106.8984375 454.42578125 C-108.73241944 456.66242132 -110.3906335 458.39626124 -112.61328125 460.203125 C-116.68543713 463.66484385 -120.42215728 467.40481503 -124.17578125 471.203125 C-128.46602594 475.54433617 -132.79773952 479.70214042 -137.46484375 483.640625 C-139.32096345 485.33571149 -140.88110532 487.14649571 -142.48828125 489.078125 C-145.15825032 492.23518302 -147.97779223 494.7249223 -151.23828125 497.265625 C-156.77008756 501.64687655 -161.4200397 506.60201717 -166.16943359 511.80786133 C-169.79486262 515.76841829 -173.47561968 519.48370127 -177.625 522.90625 C-179.23848296 524.20449319 -179.23848296 524.20449319 -180.7578125 525.875 C-182.17578125 527.203125 -182.17578125 527.203125 -184.17578125 527.203125 C-184.55730347 528.08145996 -184.55730347 528.08145996 -184.9465332 528.97753906 C-186.30735205 531.44133739 -187.76655578 532.9209469 -189.84375 534.8125 C-190.57271484 535.48539063 -191.30167969 536.15828125 -192.05273438 536.8515625 C-192.81521484 537.54507813 -193.57769531 538.23859375 -194.36328125 538.953125 C-198.71080457 542.91981583 -202.9419225 546.82753468 -206.7265625 551.34375 C-209.58142978 554.70785721 -212.63757781 557.14081831 -216.21630859 559.69287109 C-219.5425671 562.25656847 -222.21295278 565.38099956 -224.98828125 568.515625 C-229.95303504 573.99390484 -234.97974681 578.69283506 -240.80859375 583.24609375 C-243.60624027 585.55899953 -245.78837025 588.10676061 -248.09375 590.89453125 C-252.05156593 595.28302884 -256.51121379 599.16997668 -260.87109375 603.15234375 C-262.85417143 604.96673874 -264.77367309 606.80101684 -266.67578125 608.703125 C-269.13632877 611.16367252 -271.66966772 613.51337465 -274.23828125 615.859375 C-279.37000568 620.54870939 -284.26739982 625.2261878 -288.734375 630.56640625 C-291.77966428 634.02433635 -295.50343798 636.67383349 -299.11328125 639.515625 C-301.39376812 641.41117035 -303.27423449 643.42984729 -305.17578125 645.703125 C-309.64647257 650.96571007 -314.78156036 655.50390325 -319.87109375 660.15234375 C-323.43061017 663.4121382 -326.82011143 666.82394645 -330.203125 670.265625 C-333.12682337 673.23117591 -336.00863526 676.06667929 -339.23828125 678.703125 C-341.64750263 680.75352617 -343.52038293 682.68564662 -345.55078125 685.078125 C-349.77817459 690.03502427 -354.54760734 694.21596912 -359.73828125 698.140625 C-362.60624685 700.56736513 -364.91809872 703.27772313 -367.359375 706.125 C-371.8105601 711.21753866 -376.67989139 715.78912372 -381.90482616 720.07738781 C-384.28177981 722.16618103 -384.28177981 722.16618103 -386.14635944 724.93168354 C-390.15611443 730.07461766 -393.53838627 733.26783959 -400.16782188 734.20313072 C-406.56671884 734.70439533 -412.96207316 734.56497863 -419.3737793 734.4519043 C-421.83842326 734.44879874 -424.30307739 734.45054851 -426.76771545 734.45677185 C-432.05851935 734.45926971 -437.34747183 734.42825808 -442.63779259 734.36615562 C-450.28619265 734.27643081 -457.93387281 734.24807732 -465.58274207 734.23428772 C-477.99461843 734.21026309 -490.40569572 734.13719814 -502.81713867 734.03295898 C-514.86755462 733.93185774 -526.91775177 733.85418687 -538.96850586 733.80737305 C-539.71993364 733.80442508 -540.47136143 733.8014771 -541.24555975 733.7984398 C-547.12296314 733.77556369 -553.00037127 733.75403839 -558.87778127 733.7329396 C-587.64451488 733.6293272 -616.40924623 733.40799422 -645.17578125 733.203125 C-645.17578125 684.033125 -645.17578125 634.863125 -645.17578125 584.203125 C-624.72416016 584.21666016 -624.72416016 584.21666016 -603.859375 584.23046875 C-595.23239253 584.22063339 -586.60547235 584.20903609 -577.97851562 584.18945312 C-564.27913864 584.15868487 -550.58002128 584.13520231 -536.88061523 584.15844727 C-526.90382449 584.17534264 -516.92740409 584.16775734 -506.9506622 584.13077742 C-501.66793747 584.11205127 -496.38583909 584.10558278 -491.10311699 584.12843132 C-486.12959857 584.14955569 -481.15722725 584.13792025 -476.18380928 584.10128021 C-474.35973265 584.0935938 -472.53556037 584.09782264 -470.71154785 584.11493874 C-461.29881791 584.50695983 -461.29881791 584.50695983 -452.5903492 581.67704964 C-450.82873458 579.94027566 -449.52009164 578.26912127 -448.17578125 576.203125 C-444.63610699 572.62579463 -441.01654885 569.15879993 -437.30078125 565.765625 C-436.77266846 565.2811792 -436.24455566 564.7967334 -435.70043945 564.29760742 C-432.9719476 561.80440978 -430.21353417 559.36821471 -427.36328125 557.015625 C-424.96321771 554.99542763 -422.95031354 552.84921852 -420.92578125 550.453125 C-416.49577141 545.24609749 -411.48951036 540.50345636 -406.17578125 536.203125 C-405.51578125 536.203125 -404.85578125 536.203125 -404.17578125 536.203125 C-403.91168457 535.61378174 -403.64758789 535.02443848 -403.37548828 534.41723633 C-402.13001073 532.11865351 -400.83025911 530.61372983 -398.98046875 528.77734375 C-398.35124512 528.14940918 -397.72202148 527.52147461 -397.07373047 526.87451172 C-396.40615723 526.2198291 -395.73858398 525.56514648 -395.05078125 524.890625 C-394.3664502 524.21273926 -393.68211914 523.53485352 -392.97705078 522.83642578 C-389.19387902 519.11088863 -385.35527312 515.51043123 -381.28515625 512.09765625 C-377.54049677 508.73439728 -374.06059959 505.08884237 -370.56591797 501.46826172 C-369.13867351 500.01027792 -367.66095737 498.60205152 -366.17578125 497.203125 C-365.51578125 497.203125 -364.85578125 497.203125 -364.17578125 497.203125 C-363.91023438 496.61144531 -363.6446875 496.01976562 -363.37109375 495.41015625 C-362.14240546 493.14149977 -360.89190368 491.68464895 -359.05078125 489.890625 C-358.51195312 489.35824219 -357.973125 488.82585937 -357.41796875 488.27734375 C-355.50908225 486.51145746 -353.56382057 484.82052943 -351.58984375 483.12890625 C-346.36337601 478.57582787 -341.53970726 473.63683474 -336.67578125 468.703125 C-331.33170615 463.28237737 -325.99512714 457.96960475 -320.21289062 453.01757812 C-316.01270919 449.27647693 -312.12149231 445.20861956 -308.17578125 441.203125 C-298.69039133 431.57401705 -298.69039133 431.57401705 -294.20703125 427.734375 C-289.08395331 423.34169572 -284.41063378 418.50590941 -279.67578125 413.703125 C-274.33170615 408.28237737 -268.99512714 402.96960475 -263.21289062 398.01757812 C-259.01270919 394.27647693 -255.12149231 390.20861956 -251.17578125 386.203125 C-241.69028218 376.57390625 -241.69028218 376.57390625 -237.21484375 372.7421875 C-232.04439555 368.30926179 -227.32953926 363.4247631 -222.55078125 358.578125 C-217.25718453 353.20997058 -212.03538736 347.95014767 -206.17578125 343.203125 C-205.55703125 342.419375 -204.93828125 341.635625 -204.30078125 340.828125 C-202.48274655 338.58231743 -200.79457349 336.93642671 -198.61328125 335.078125 C-193.16187662 330.43051916 -188.19559419 325.30598631 -183.17578125 320.203125 C-183.41699707 319.65076172 -183.65821289 319.09839844 -183.90673828 318.52929688 C-190.2951303 303.86303121 -196.58181828 289.30911171 -200.92578125 273.890625 C-201.22403809 272.83355347 -201.22403809 272.83355347 -201.52832031 271.75512695 C-204.35227696 261.32513612 -205.64708465 250.90952827 -206.36328125 240.140625 C-206.45005127 238.83802734 -206.53682129 237.53542969 -206.6262207 236.19335938 C-207.35073999 224.36754368 -207.07067334 212.65370028 -206.33154297 200.83349609 C-206.20239685 198.65258662 -206.12217933 196.46884343 -206.0546875 194.28515625 C-204.72798234 160.63508891 -189.45031381 119.9404352 -167.68359375 94.23046875 C-166.03768685 92.15370981 -166.03768685 92.15370981 -164.79296875 89.3046875 C-162.9824723 85.83238272 -160.88011249 83.46680838 -158.17578125 80.640625 C-154.63673725 76.90460597 -151.23563701 73.11649057 -147.98242188 69.12841797 C-143.64743599 63.82408967 -139.20008295 59.27789793 -133.6953125 55.16015625 C-130.91014277 52.99679185 -128.41488323 50.63656307 -125.86328125 48.203125 C-111.77659394 35.203125 -111.77659394 35.203125 -105.17578125 35.203125 C-105.17578125 34.543125 -105.17578125 33.883125 -105.17578125 33.203125 C-90.00222536 24.38707673 -74.61853957 17.31153983 -58.17578125 11.203125 C-57.46405762 10.92887695 -56.75233398 10.65462891 -56.01904297 10.37207031 C-38.49357037 3.62064052 -18.75489856 0.08804382 0 0 Z M-9.17578125 151.203125 C-10.16578125 151.55503906 -11.15578125 151.90695313 -12.17578125 152.26953125 C-32.36553389 160.07245861 -44.59304192 173.30070493 -53.703125 192.40625 C-60.4829401 207.73452761 -61.71187706 225.24482453 -56.17578125 241.203125 C-55.68271484 242.64171875 -55.68271484 242.64171875 -55.1796875 244.109375 C-47.90756549 263.23329448 -35.52570668 276.70347869 -17.09765625 285.70703125 C-0.70556179 292.89466429 17.6398815 295.34621943 34.82421875 289.203125 C55.19588275 280.57888397 71.23635404 268.31524187 79.74926758 247.30664062 C87.01591459 228.8253405 86.7452289 210.45783214 79.44921875 191.953125 C75.33287508 182.57565568 69.94431477 175.56322426 62.82421875 168.203125 C61.69693359 167.01976562 61.69693359 167.01976562 60.546875 165.8125 C47.2206124 152.77449266 29.06399414 147.94657829 10.90844727 147.9543457 C3.83173205 148.03907853 -2.48358191 148.78109355 -9.17578125 151.203125 Z " fill="#1E90FF" transform="translate(1815.17578125,-0.203125)"/>
<path d="M0 0 C0.78197754 0.00182281 1.56395508 0.00364563 2.36962891 0.00552368 C21.88046232 0.08169136 40.26629242 2.47021297 59.08496094 7.67724609 C61.36348317 8.29251331 63.64880209 8.85077944 65.9453125 9.39453125 C81.59697858 13.22099111 96.08707971 20.29937244 109.76953125 28.7421875 C111.88948355 29.98994859 113.95830403 31.04297671 116.17578125 32.08984375 C121.11310088 34.52862788 125.41532994 37.70688514 129.8125 41 C130.64885986 41.62140869 131.48521973 42.24281738 132.34692383 42.88305664 C138.36699155 47.40089043 143.9604708 52.14964073 149.4375 57.3125 C150.72600326 58.39959394 152.01762686 59.4830013 153.3125 60.5625 C172.70459729 77.57926007 191.16805113 102.31189902 200.62695312 126.26074219 C201.25455514 127.84940704 201.89676232 129.43230628 202.54492188 131.01269531 C207.2785231 142.57346398 211.68951826 154.15889274 214.875 166.25 C215.09736328 167.08644043 215.31972656 167.92288086 215.54882812 168.78466797 C219.73582561 185.63894325 220.98478804 202.17732703 220.875 219.5 C220.86993942 221.05196579 220.86993942 221.05196579 220.86477661 222.63528442 C220.79278104 237.87994236 220.26832676 252.48188601 216.4375 267.3125 C216.09138672 268.72354004 216.09138672 268.72354004 215.73828125 270.16308594 C209.79209692 293.95568857 200.57137476 317.19336766 187.125 337.75 C186.41561279 338.83885498 186.41561279 338.83885498 185.69189453 339.94970703 C181.52993165 346.27863076 177.12330415 352.35779667 172.4375 358.3125 C172.03192871 358.83166992 171.62635742 359.35083984 171.20849609 359.88574219 C165.85013634 366.72133878 165.85013634 366.72133878 163.4375 369.3125 C162.7775 369.3125 162.1175 369.3125 161.4375 369.3125 C161.08945313 370.14587891 161.08945313 370.14587891 160.734375 370.99609375 C155.13880883 380.99058393 143.45363944 388.56645216 134.4375 395.3125 C133.72609863 395.85229492 133.01469727 396.39208984 132.28173828 396.94824219 C122.68786809 404.20880642 113.38058201 410.26373204 102.4375 415.3125 C100.4617804 416.30716915 98.49645148 417.32085024 96.53027344 418.33422852 C86.20618188 423.62662898 75.57459156 428.95179406 64.03515625 430.828125 C60.91006669 431.41084847 57.92785155 432.3006381 54.875 433.1875 C24.93307446 441.26129717 -9.12928543 442.89869168 -39.5625 436.3125 C-40.35140625 436.14669434 -41.1403125 435.98088867 -41.953125 435.81005859 C-47.85652338 434.54963543 -53.75534795 433.27333728 -59.47265625 431.31640625 C-61.95928441 430.50848787 -64.29679337 429.92768944 -66.84765625 429.40625 C-71.7716267 428.34427769 -76.33481215 426.69383423 -81 424.8125 C-81.85819336 424.46864258 -82.71638672 424.12478516 -83.60058594 423.77050781 C-91.97472729 420.31329349 -99.75899258 415.99169499 -107.56933594 411.42749023 C-109.53431305 410.32826798 -111.52766756 409.35702588 -113.5625 408.39453125 C-118.04472834 406.1907873 -121.87520201 403.30028314 -125.8125 400.25 C-126.50601563 399.72083984 -127.19953125 399.19167969 -127.9140625 398.64648438 C-129.23308985 397.63952575 -130.54906669 396.62855316 -131.86132812 395.61279297 C-133.23230695 394.5648835 -134.63508765 393.55865302 -136.046875 392.56640625 C-136.54703125 392.15261719 -137.0471875 391.73882813 -137.5625 391.3125 C-137.5625 390.6525 -137.5625 389.9925 -137.5625 389.3125 C-138.1594165 389.1993042 -138.75633301 389.0861084 -139.37133789 388.96948242 C-142.96636397 387.89157544 -145.33771375 385.15949651 -148 382.625 C-148.84014648 381.84866211 -148.84014648 381.84866211 -149.69726562 381.05664062 C-153.29712619 377.68360908 -156.45294911 374.13963955 -159.5625 370.3125 C-160.325625 369.549375 -161.08875 368.78625 -161.875 368 C-170.33375309 359.54124691 -176.97872459 350.25109815 -183.5625 340.3125 C-184.55830078 338.81783203 -184.55830078 338.81783203 -185.57421875 337.29296875 C-191.98348049 327.45583219 -197.43765149 317.30619496 -201.5625 306.3125 C-202.64607359 303.65418279 -203.73596142 300.99854761 -204.828125 298.34375 C-205.5625 296.3125 -205.5625 296.3125 -205.5625 294.3125 C-354.7225 294.3125 -503.8825 294.3125 -657.5625 294.3125 C-657.5625 245.4725 -657.5625 196.6325 -657.5625 146.3125 C-508.4025 146.3125 -359.2425 146.3125 -205.5625 146.3125 C-204.0775 141.3625 -204.0775 141.3625 -202.5625 136.3125 C-200.625 132.3125 -200.625 132.3125 -199.5859375 130.359375 C-198.47519385 128.1378877 -197.61703895 125.88942504 -196.75 123.5625 C-188.32962817 102.335479 -172.68552898 82.26295833 -156.5625 66.3125 C-155.54416191 65.27351651 -154.52731614 64.23306891 -153.51171875 63.19140625 C-143.19134751 52.66519326 -143.19134751 52.66519326 -137.7265625 48.83984375 C-134.15943011 46.3222467 -130.74617629 43.59890573 -127.3046875 40.91333008 C-121.03677584 36.06165152 -114.576862 32.14117746 -107.5625 28.5 C-106.72380371 28.06276611 -105.88510742 27.62553223 -105.02099609 27.17504883 C-102.53699737 25.88330316 -100.04991664 24.59764821 -97.5625 23.3125 C-96.88993164 22.961875 -96.21736328 22.61125 -95.52441406 22.25 C-82.6086199 15.52429511 -69.71108267 10.73215307 -55.5625 7.3125 C-54.71945312 7.10592773 -53.87640625 6.89935547 -53.0078125 6.68652344 C-50.21637607 6.0076605 -47.42151611 5.34510559 -44.625 4.6875 C-43.76849854 4.48125 -42.91199707 4.275 -42.02954102 4.0625 C-28.07641747 0.85805444 -14.25822371 -0.06953094 0 0 Z M-57.5625 176.3125 C-59.80967193 179.84981299 -61.64885232 183.58592293 -63.5625 187.3125 C-63.93503906 187.96089844 -64.30757812 188.60929687 -64.69140625 189.27734375 C-72.9323759 204.04645406 -73.87741526 222.26447506 -69.875 238.4375 C-68.02796543 244.43226131 -65.68324845 249.88075999 -62.5625 255.3125 C-62.11003906 256.15425781 -61.65757812 256.99601562 -61.19140625 257.86328125 C-53.15646915 272.21293857 -38.12952196 284.07741936 -22.5625 289.3125 C-3.03168279 294.44725266 18.42135327 293.69799514 36.32495117 283.66479492 C42.39601101 279.99394106 47.45720837 275.35031976 52.4375 270.3125 C53.70207031 269.08080078 53.70207031 269.08080078 54.9921875 267.82421875 C67.79094748 254.67788861 73.12523104 235.73700624 72.90600586 217.72485352 C72.31900849 201.69813956 65.88300581 183.03966256 54.4375 171.3125 C50.90619042 168.122569 47.22791046 165.18762717 43.4375 162.3125 C42.58542969 161.65765625 41.73335937 161.0028125 40.85546875 160.328125 C8.69868873 136.62832492 -32.46694752 149.24362203 -57.5625 176.3125 Z " fill="#1E90FF" transform="translate(1827.5625,803.6875)"/>
</svg>
